<svg xmlns="http://www.w3.org/2000/svg" viewBox="0 0 64 64" fill="none">
  <!-- Heart shape -->
  <path d="M32 54c-1.1 0-2-.9-2-2 0-1.1.9-2 2-2s2 .9 2 2c0 1.1-.9 2-2 2z" fill="#5A7DAC"/>
  <path d="M32 10c-6.6 0-12 5.4-12 12 0 6.6 5.4 12 12 12s12-5.4 12-12c0-6.6-5.4-12-12-12z" fill="#5A7DAC"/>
  <path d="M18 22c0-8.8 7.2-16 16-16s16 7.2 16 16c0 16-16 30-16 30s-16-14-16-30z" fill="#D7E4F5"/>
  <path d="M18 22c0-8.8 7.2-16 16-16s16 7.2 16 16c0 8.8-7.2 16-16 16s-16-7.2-16-16z" fill="#9EB7D9"/>
  
  <!-- Wedding rings -->
  <circle cx="26" cy="20" r="6" fill="none" stroke="#C9A65B" stroke-width="2"/>
  <circle cx="38" cy="20" r="6" fill="none" stroke="#C9A65B" stroke-width="2"/>
  <circle cx="26" cy="20" r="3" fill="none" stroke="#C9A65B" stroke-width="1"/>
  <circle cx="38" cy="20" r="3" fill="none" stroke="#C9A65B" stroke-width="1"/>
</svg>